<svg xmlns="http://www.w3.org/2000/svg" viewBox="0 0 840 260" role="img" aria-labelledby="title desc">
  <title id="title">FDGrids.jl logo</title>
  <desc id="desc">Julia-colored finite-difference stencil points on a non-uniform grid with the FDGrids.jl wordmark and tagline.</desc>
  <defs>
    <linearGradient id="panel" x1="0" x2="1" y1="0" y2="1">
      <stop offset="0" stop-color="#ffffff"/>
      <stop offset="1" stop-color="#f6f8fb"/>
    </linearGradient>
    <filter id="shadow" x="-10%" y="-20%" width="120%" height="140%">
      <feDropShadow dx="0" dy="8" stdDeviation="10" flood-color="#172033" flood-opacity="0.14"/>
    </filter>
  </defs>

  <rect x="24" y="24" width="792" height="212" rx="28" fill="url(#panel)" filter="url(#shadow)"/>

  <g transform="translate(74 46)">
    <g stroke="#d7dce6" stroke-width="2" stroke-linecap="round">
      <line x1="18" y1="160" x2="324" y2="160"/>
      <line x1="18" y1="128" x2="324" y2="128"/>
      <line x1="18" y1="96" x2="324" y2="96"/>
      <line x1="18" y1="64" x2="324" y2="64"/>
      <line x1="18" y1="32" x2="324" y2="32"/>
      <line x1="42" y1="24" x2="42" y2="168"/>
      <line x1="84" y1="24" x2="84" y2="168"/>
      <line x1="146" y1="24" x2="146" y2="168"/>
      <line x1="226" y1="24" x2="226" y2="168"/>
      <line x1="302" y1="24" x2="302" y2="168"/>
    </g>

    <path d="M14 136 C24 126, 32 116, 42 110 C56 96, 70 137, 84 143 C103 152, 126 139, 146 129 C178 113, 196 80, 226 71 C252 63, 279 63, 302 58 C310 56, 318 54, 324 51" fill="none" stroke="#2f3441" stroke-width="7" stroke-linecap="round"/>

    <g fill="none" stroke-width="4" stroke-linecap="round">
      <path d="M42 110 L84 143 L146 129" stroke="#9558b2" opacity="0.75"/>
      <path d="M146 129 L226 71 L302 58" stroke="#4063d8" opacity="0.75"/>
    </g>

    <g>
      <circle cx="42" cy="110" r="16" fill="#389826"/>
      <circle cx="84" cy="143" r="16" fill="#9558b2"/>
      <circle cx="146" cy="129" r="16" fill="#cb3c33"/>
      <circle cx="226" cy="71" r="16" fill="#4063d8"/>
      <circle cx="302" cy="58" r="16" fill="#389826"/>
    </g>
  </g>

  <g transform="translate(424 68)">
    <text x="0" y="54" font-family="Inter, Avenir, Helvetica, Arial, sans-serif" font-size="54" font-weight="800" fill="#242936" letter-spacing="0">FDGrids.jl</text>
    <text x="2" y="92" font-family="Inter, Avenir, Helvetica, Arial, sans-serif" font-size="20" font-weight="600" fill="#5c6475" letter-spacing="0">fast finite difference differentiation</text>
    <text x="2" y="120" font-family="Inter, Avenir, Helvetica, Arial, sans-serif" font-size="20" font-weight="600" fill="#5c6475" letter-spacing="0">matrices on arbitrary grids</text>
  </g>
</svg>
