<svg xmlns="http://www.w3.org/2000/svg" viewBox="0 0 920 260" role="img" aria-labelledby="title desc">
  <title id="title">FDGrids.jl logo</title>
  <desc id="desc">Julia-colored finite-difference stencil points on a non-uniform grid with the FDGrids.jl wordmark.</desc>
  <defs>
    <linearGradient id="panel" x1="0" x2="1" y1="0" y2="1">
      <stop offset="0" stop-color="#ffffff"/>
      <stop offset="1" stop-color="#f6f8fb"/>
    </linearGradient>
    <filter id="shadow" x="-10%" y="-20%" width="120%" height="140%">
      <feDropShadow dx="0" dy="8" stdDeviation="10" flood-color="#172033" flood-opacity="0.14"/>
    </filter>
  </defs>

  <rect x="24" y="24" width="872" height="212" rx="28" fill="url(#panel)" filter="url(#shadow)"/>

  <g transform="translate(74 46)">
    <path d="M14 142 C68 78, 116 170, 174 98 C220 40, 268 84, 312 54" fill="none" stroke="#2f3441" stroke-width="7" stroke-linecap="round"/>

    <g stroke="#d7dce6" stroke-width="2">
      <line x1="18" y1="160" x2="324" y2="160"/>
      <line x1="18" y1="128" x2="324" y2="128"/>
      <line x1="18" y1="96" x2="324" y2="96"/>
      <line x1="18" y1="64" x2="324" y2="64"/>
      <line x1="18" y1="32" x2="324" y2="32"/>
    </g>

    <g stroke="#2f3441" stroke-width="3">
      <line x1="42" y1="160" x2="42" y2="176"/>
      <line x1="84" y1="160" x2="84" y2="176"/>
      <line x1="146" y1="160" x2="146" y2="176"/>
      <line x1="226" y1="160" x2="226" y2="176"/>
      <line x1="302" y1="160" x2="302" y2="176"/>
    </g>

    <g>
      <circle cx="42" cy="110" r="16" fill="#389826"/>
      <circle cx="84" cy="143" r="16" fill="#9558b2"/>
      <circle cx="146" cy="129" r="16" fill="#cb3c33"/>
      <circle cx="226" cy="71" r="16" fill="#4063d8"/>
      <circle cx="302" cy="58" r="16" fill="#389826"/>
    </g>

    <g fill="none" stroke-width="4" stroke-linecap="round">
      <path d="M42 110 L84 143 L146 129" stroke="#9558b2" opacity="0.75"/>
      <path d="M146 129 L226 71 L302 58" stroke="#4063d8" opacity="0.75"/>
    </g>
  </g>

  <g transform="translate(435 78)">
    <text x="0" y="58" font-family="Inter, Avenir, Helvetica, Arial, sans-serif" font-size="58" font-weight="800" fill="#242936" letter-spacing="0">FDGrids.jl</text>
    <text x="2" y="102" font-family="Inter, Avenir, Helvetica, Arial, sans-serif" font-size="24" font-weight="500" fill="#5c6475" letter-spacing="0">finite differences on arbitrary grids</text>
  </g>
</svg>
